<svg version="1.1" viewBox="0.0 0.0 247.05774278215222 207.18897637795277" fill="none" stroke="none" stroke-linecap="square" stroke-miterlimit="10" xmlns:xlink="http://www.w3.org/1999/xlink" xmlns="http://www.w3.org/2000/svg"><clipPath id="p.0"><path d="m0 0l247.05774 0l0 207.18898l-247.05774 0l0 -207.18898z" clip-rule="nonzero"/></clipPath><g clip-path="url(#p.0)"><path fill="#000000" fill-opacity="0.0" d="m0 0l247.05774 0l0 207.18898l-247.05774 0z" fill-rule="evenodd"/><path fill="#f16529" d="m-0.0023380578 34.53464l0 0c0 -19.07066 15.459824 -34.530483 34.530483 -34.530483l178.00241 0c9.158051 0 17.941025 3.6380224 24.416733 10.113744c6.4757233 6.4757223 10.113754 15.258685 10.113754 24.41674l0 138.1178c0 19.070648 -15.459824 34.53047 -34.530487 34.53047l-178.00241 0c-19.07066 0 -34.530483 -15.459824 -34.530483 -34.53047z" fill-rule="evenodd"/><path stroke="#ffffff" stroke-width="1.0" stroke-linejoin="round" stroke-linecap="butt" d="m-0.0023380578 34.53464l0 0c0 -19.07066 15.459824 -34.530483 34.530483 -34.530483l178.00241 0c9.158051 0 17.941025 3.6380224 24.416733 10.113744c6.4757233 6.4757223 10.113754 15.258685 10.113754 24.41674l0 138.1178c0 19.070648 -15.459824 34.53047 -34.530487 34.53047l-178.00241 0c-19.07066 0 -34.530483 -15.459824 -34.530483 -34.53047z" fill-rule="evenodd"/><path fill="#ffffff" d="m31.546543 103.59354l91.9828 -66.93933l91.982796 66.93933l-91.982796 66.93933z" fill-rule="evenodd"/><path fill="#f16529" d="m87.32677 103.59354l36.202583 -26.877762l36.202583 26.877762l-36.202583 26.877762z" fill-rule="evenodd"/><path fill="#f16529" d="m111.68648 16.535734l23.68573 0l0 174.1156l-23.68573 0z" fill-rule="evenodd"/><path fill="#f16529" d="m7.478352 81.06786l31.548882 0l0 45.05134l-31.548882 0z" fill-rule="evenodd"/><path fill="#f16529" d="m208.03146 81.06786l31.548874 0l0 45.05134l-31.548874 0z" fill-rule="evenodd"/></g></svg>